<svg xmlns="http://www.w3.org/2000/svg" viewBox="0 0 100 100" width="100" height="100">
  <defs>
    <linearGradient id="skyGrad" x1="0%" y1="0%" x2="0%" y2="100%">
      <stop offset="0%" stop-color="#38BDF8" />
      <stop offset="100%" stop-color="#818CF8" />
    </linearGradient>
  </defs>
  <rect x="5" y="5" width="90" height="90" rx="24" fill="url(#skyGrad)" />
  <!-- City Skyline / Monument Silhouette -->
  <path d="M 15 72 L 25 72 L 25 50 L 35 50 L 35 72 L 45 72 L 45 42 L 55 35 L 65 42 L 65 72 L 75 72 L 75 55 L 85 55 L 85 72 Z" fill="#1E1B4B" opacity="0.6" />
  <!-- Road -->
  <path d="M 10 75 Q 50 72 90 75 L 90 90 L 10 90 Z" fill="#334155" />
  <line x1="20" y1="82" x2="35" y2="82" stroke="#FDE047" stroke-width="3" stroke-dasharray="4,4" />
  <line x1="50" y1="82" x2="65" y2="82" stroke="#FDE047" stroke-width="3" stroke-dasharray="4,4" />
  <!-- Runner Emoji / Motion figure -->
  <circle cx="58" cy="30" r="6" fill="#FFF" />
  <path d="M 56 36 L 50 48 L 40 52 M 50 48 L 58 60 L 68 64 M 56 38 L 68 44" stroke="#FFF" stroke-width="4" stroke-linecap="round" stroke-linejoin="round" fill="none" />
</svg>
